<svg width="600" height="600" viewBox="0 0 600 600" fill="none" xmlns="http://www.w3.org/2000/svg">
<mask id="mask0_199_127" style="mask-type:luminance" maskUnits="userSpaceOnUse" x="79" y="78" width="441" height="479">
<path d="M79.2246 78.6704H519.551V556.744H79.2246V78.6704Z" fill="white"/>
</mask>
<g mask="url(#mask0_199_127)">
<path fill-rule="evenodd" clip-rule="evenodd" d="M326.884 520.947C321.244 526.99 326.532 536.743 331.93 540.034C337.327 543.322 335.491 550.221 335.491 550.221C335.491 550.221 341.537 544.491 335.598 537.381C329.661 530.274 330.983 520.129 342.46 513.371C351.626 509.664 358.992 507.76 358.992 507.76C345.227 541.369 376.355 545.925 376.355 545.925C364.406 541.511 355.404 524.629 368.415 504.37C370.047 501.825 371.626 499.293 373.072 496.788C374.725 498.519 377.223 499.993 379.759 503.511C383.969 509.346 380.513 517.197 380.513 517.197C386.344 513.164 384.509 502.873 384.509 502.873C390.447 504.465 389.585 509.664 389.585 509.664C389.585 509.664 391.311 504.677 388.936 502.45C386.561 500.221 375.225 494.173 377.878 487.127L377.898 487.073C383.318 473.451 381.23 461.272 357.645 453.144C351.827 451.138 346.898 448.57 342.723 445.7C347.945 445.19 354.991 444.872 362.171 445.667C376.429 447.245 378.925 460.031 391.4 462.659C403.874 465.285 408.867 469.492 408.867 469.492C408.867 469.492 408.331 461.959 396.747 458.98C385.164 456.002 382.311 443.564 382.311 443.564C382.311 443.564 386.232 447.594 402.918 447.125C419.605 446.657 419.2 459.245 419.2 459.245C419.2 459.245 420.984 441.287 405.301 439.011C389.62 436.734 369.123 439.711 355.221 436.032C341.322 432.353 337.043 435.858 321.538 438.66C306.034 441.465 290.528 430.953 275.379 437.435C260.231 443.915 257.2 440.938 240.091 437.084C222.983 433.231 224.051 440.589 202.665 437.61C181.278 434.632 179.318 434.282 167.378 438.835C155.435 443.39 148.129 433.055 148.129 433.055C147.06 439.186 156.689 444.285 156.689 444.285C148.497 446.232 139.038 436.908 125.673 441.728C112.307 446.544 111.239 440.238 101.435 442.864C91.6314 445.493 83.4362 439.012 83.4362 439.012C91.6314 452.323 96.0885 444.791 105.535 447.769C114.98 450.746 128.348 445.14 128.348 445.14C123 450.746 119.971 449.17 111.416 457.053C102.862 464.936 109.812 473.871 109.812 473.871C109.635 461.959 114.448 466.161 124.427 456.353C134.407 446.543 156.474 448.605 150.535 455.389C144.597 462.175 128.527 466.25 128.527 466.25C150.268 471.331 158.11 458.717 167.912 448.208C177.714 437.698 188.586 442.688 194.978 446.508C180.166 449.189 171.338 450.215 169.378 463.513C166.683 481.788 151.024 493.223 126.843 490.675C126.843 490.675 142.497 497.999 159.771 490.57C168.607 486.772 171.962 479.806 175.24 473.056C175.667 475.371 176.552 477.769 178.207 479.936C183.953 487.465 183.41 500.941 170.888 502.638C158.365 504.337 156.112 513.039 156.112 513.039C156.112 513.039 162.47 505.824 174.129 505.93C185.786 506.035 189.244 498.184 189.244 498.184C189.244 498.184 198.635 503.382 197.337 511.127C197.337 511.127 202.303 498.395 190.213 492.559C190.213 492.559 191.995 485.455 187.621 479.191C183.25 472.923 179.847 461.545 193.116 455.882C197.878 454.507 202.783 453.927 207.739 453.412C204.391 457.817 204.967 461.821 204.967 461.821C204.967 461.821 198.273 465.218 201.189 471.479C204.101 477.737 200.001 484.316 200.001 484.316C200.001 484.316 205.614 478.374 204.535 474.13C203.455 469.887 206.695 465.641 206.695 465.641C206.695 465.641 207.665 469.567 217.273 473.387C226.882 477.207 224.399 483.786 224.399 483.786C229.037 472.552 219.003 471.902 214.683 465.11C210.364 458.317 219.865 453.651 224.856 450.781L224.859 450.778C229.514 449.52 234.116 447.567 238.58 444.305C238.58 444.305 232.729 455.408 239.541 465.454C246.352 475.499 245.273 488.87 224.113 493.753C202.953 498.63 209.875 512.743 205.226 521.816C200.578 530.89 188.099 532.286 188.099 532.286C188.099 532.286 207.272 534.71 213.21 522.084C219.148 509.457 214.507 506.164 227.139 503.086C239.769 500.011 245.924 493.115 245.924 493.115C245.924 493.115 247.652 499.374 235.884 508.819C224.116 518.264 225.103 541.541 249.332 552.133C249.332 552.133 235.564 539.272 237.829 525.797C239.217 517.556 244.723 511.616 249.855 505.574C248.774 516.838 254.933 519.638 258.565 523.442C263.422 528.536 256.837 541.27 256.837 541.27C256.837 541.27 270.115 524.397 261.37 518.457C252.625 512.515 256.728 499.78 258.021 493.326C261.096 485.596 259.017 478.261 256.009 470.62L256.008 470.618C252.139 450.375 258.805 447.071 265.526 458.731L265.532 458.737C265.837 459.519 266.263 460.309 266.824 461.12C271.375 467.698 282.9 473.169 282.304 479.824C281.76 485.825 275.896 493.54 271.952 500.103C266.336 509.441 267.2 513.05 276.701 518.353C276.701 518.353 269.892 511.373 273.568 504.561C277.246 497.745 294.043 485.541 293.182 477.105C308.415 482.976 319.346 488.917 305.386 504.814C320.285 497.811 327.842 485.82 314.455 477.757C304.325 471.654 283.066 463.377 280.703 455.439C278.628 447.033 315.163 441.739 314.75 452.467V452.47C313.843 457.666 313.232 463.377 316.607 466.692C323.082 473.061 329.13 474.335 329.13 474.335C329.13 474.335 317.275 466.606 319.63 456.932C321.381 449.741 322.556 450.074 323.044 448.017C327.75 451.332 332.644 454.095 337.029 456.003L337.039 456.009C344.974 459.937 344.714 467.416 340.181 476.966C335.642 486.519 345.577 494.58 345.577 494.58C345.577 494.58 340.217 484.753 345.07 478.783C349.157 473.755 352.307 467.256 352.106 462.413C360.005 466.04 365.852 469.896 366.45 475.922C369.432 505.913 323.296 502.961 306.085 523.698L306.057 523.718C296.766 530.927 276.916 529.494 274.107 538.832C271.301 548.167 261.155 550.079 261.155 550.079C261.155 550.079 272.057 550.079 277.563 540.209C282.329 531.667 292.527 535.212 300.008 534.359C294.776 550.085 310.452 556.786 310.452 556.786C301.533 541.275 312.912 529.221 326.884 520.947ZM419.38 439.536C419.38 439.536 427.668 435.417 436.579 438.133C444.606 440.581 453.935 443.461 461.976 440.589C479.224 434.422 481.632 444.564 488.39 446.616C494.344 448.423 500.388 444.561 503.808 441.728H504.904C503.2 444.145 500.449 447.534 497.674 448.843C497.674 448.843 504.919 458.433 491.736 473.248C491.736 473.248 499.08 458.286 492.274 453.51C485.476 448.736 480.018 457.686 476.297 450.433C472.579 443.18 474.248 445.339 459.672 449.266C449.833 451.917 443.39 449.587 439.942 446.452C439.768 453.629 442.269 460.86 452.943 462.874C470.577 466.2 473.966 468.958 470.168 480.844C466.367 492.73 470.918 494.776 470.918 494.776C470.918 494.776 464.533 492.941 464.641 487.105C464.748 481.27 468.742 470.446 455.574 471.403C449.604 471.833 443.765 471.66 439.137 469.735C437.192 472.234 433.864 474.584 429.85 477.057C426.724 485.92 432.539 488.355 439.556 491.117C446.575 493.876 447.978 501.621 447.978 501.621C447.978 501.621 445.389 494.829 437.506 494.513C429.625 494.193 420.127 486.02 423.631 480.762L421.996 481.732C411.303 488.092 417.255 492.136 422.707 508.525C428.162 524.912 409.87 533.387 409.87 533.387C423.266 521.183 417.156 509.99 411.84 500.186C405.183 509.006 389.798 523.469 387.24 540.842C377.307 521.742 408.272 499.042 408.272 492.985C407.117 490.067 406.575 487.305 407.324 484.706C410.936 472.177 432.837 467.869 430.802 460.879L430.714 460.613L430.685 460.536C430.193 459.301 429.989 458.383 429.989 457.711C428.685 450.372 429.416 442.168 419.38 439.536ZM446.46 351.01C471.478 353.785 503.467 358.713 515.011 352.676C505.74 366.163 435.995 352.032 424.118 355.48C416.997 357.545 411.652 358.479 398.462 354.977C385.276 351.474 374.038 358.282 359.782 356.353C345.524 354.427 338.661 352.762 329.752 355.04C320.839 357.318 317.476 355.623 310.323 354.691C303.171 353.758 295.621 356.254 287.835 357.218C292.573 350.737 292.664 341.88 292.664 341.88C289.194 350.645 280.109 359.128 271.56 358.018C285.655 346.482 283.665 323.399 283.665 323.399C281.183 339.113 274.305 350.6 259.257 356.665C238.012 361.878 242.906 353.437 227.896 355.83C219.219 357.213 213.65 362.335 198.056 356.732C182.461 351.124 158.747 356.879 158.747 356.879C170.51 349.873 184.612 346.582 198.577 350.311C205.729 352.221 210.219 350.69 215.105 349.061C210.504 348.572 202.134 347.438 193.443 345.065C180.432 341.513 172.412 344.086 155.66 350.658C138.907 357.226 121.262 356.648 106.469 353.512C91.6776 350.377 79.5577 357.827 79.5577 357.827C79.5577 357.827 91.8562 349.142 104.332 349.736C116.808 350.33 127.5 353.091 146.57 345.912C165.642 338.729 179.364 334.023 196.293 339.356C209.03 343.367 225.261 345.861 236.582 346.35C249.901 346.927 261.856 342.833 266.628 332.478C276.843 310.313 251.159 289.457 230.327 291.641C215.679 293.175 206.988 298.866 202.622 298.086C196.739 297.033 185.155 300.536 185.155 300.536C185.155 300.536 191.75 293.705 200.482 294.581C207.439 295.28 211.682 287.08 223.125 283.809C212.585 281.681 200.804 280.597 188.413 280.453C183.08 280.39 178.226 279.428 174.118 277.589C172.299 276.775 170.625 275.785 169.127 274.629C159.49 269.812 148.233 269.136 136.703 274.073C136.17 274.301 135.643 274.518 135.115 274.72C132.335 286.189 118.624 286.241 110.596 288.574C102.318 290.982 100.794 299.067 100.794 299.067C100.794 299.067 99.9191 285.902 114.676 284.293C123.808 283.298 126.842 279.547 127.824 276.829C117.731 278.718 108.703 275.873 102.427 267.476C94.3493 256.678 83.0345 257.477 83.0345 257.477C83.0345 257.477 95.6485 253.47 104.771 264.344C113.894 275.218 130.88 269.936 146.69 264.122C151.969 262.18 157.013 261.986 161.394 262.589C160.853 260.353 160.593 257.912 160.657 255.269C160.699 253.638 160.778 252.066 160.884 250.54C158.76 248.525 155.408 246.691 150.3 246.913C139.365 247.39 127.191 250.797 124.28 239.35C121.369 227.904 119.039 229.62 106.81 226.571C94.5789 223.516 98.0747 208.827 98.0747 208.827C97.5423 217.223 103.9 224.758 112.05 223.804C120.204 222.85 129.131 225.711 129.619 233.152C130.102 240.591 135.536 241.832 147.377 239.35C153.763 238.012 158.676 239.284 161.854 240.738C162.849 231.702 163.417 224.18 158.717 215.968C151.732 203.758 133.095 207.193 132.319 190.214C131.544 173.236 133.872 168.848 126.301 163.315C126.301 163.315 136.784 163.696 136.008 177.241C135.23 190.786 139.959 199.195 154.639 202.235C157.378 202.801 159.788 203.747 161.893 205.001C163.24 201.126 166.507 194.851 174.358 188.79C186.977 179.062 184.451 167.81 180.373 152.164C176.298 136.519 189.303 119.157 189.303 119.157C181.926 137.093 182.703 143.385 189.678 156.465C196.653 169.546 193.186 188.414 181.003 195.539C168.816 202.668 171.306 216.395 171.306 216.395C173.365 221.512 174.075 227.485 173.667 233.52C172.694 247.83 170.947 260.803 183.564 265.956C196.178 271.105 235.736 263.799 262.097 282.361C262.097 282.361 261.982 275.495 248.2 265.765C234.642 256.19 218.637 260.101 213.504 244.054C208.73 241.451 200.117 240.647 195.198 239.779C189.231 238.727 184.75 232.104 188.621 225.231C186.604 237.984 201.31 233.793 212.127 237.103C210.889 223.361 217.987 213.49 203.557 207.482C203.557 207.482 217.064 207.841 217.727 221.601C218.386 235.356 219.085 247.61 236.166 249.074C253.245 250.534 275.534 260.19 282.361 274.956C282.361 274.956 284.384 255.387 259.398 231.002C234.413 206.618 225.299 210.535 222.967 185.733C220.64 160.934 257.639 133.939 234.413 102.836C234.413 102.836 252.861 112.473 245.098 141.475C244.513 143.656 243.915 145.754 243.314 147.778C256.776 136.406 276.377 131.841 287.515 120.113C303.816 102.939 290.233 78.7128 290.233 78.7128C301.666 91.802 302.576 107 296.965 118.717C303.328 118.076 319.449 114.587 324.881 95.81C324.881 95.81 325.453 120.588 292.718 125.351L292.721 125.338C278.196 142.467 243.226 145.038 234.915 177.496C233.706 185.978 235.227 193.022 242.38 200.231C242.842 200.697 243.34 201.165 243.864 201.638C246.62 192.761 262.316 179.908 262.316 179.908C262.316 179.908 247.564 197.08 249.596 206.243C256.205 211.146 264.938 216.821 273.554 224.038C277.367 213.02 288.51 203.84 299.069 194.902C313.041 183.074 301.787 164.946 301.787 164.946C309.732 174.607 310.907 182.36 308.841 188.948C305.362 200.06 292.688 207.863 287.813 215.888C284.045 222.095 283.385 228.523 283.707 233.498C297.175 247.648 307.864 266.824 305.656 294.479C315.27 262.857 330.965 245.777 347.697 235.521C356.432 215.984 347.113 202.483 345.454 185.356C345.046 181.16 345.325 177.437 346.095 174.002L346.09 174.004L346.104 173.96C346.165 173.68 346.23 173.401 346.299 173.125C347.185 169.144 350.215 152.361 342.199 137.605C342.199 137.605 350.568 140.93 352.058 160.122C356.22 153.195 361.519 146.298 365.64 137.088C374.183 118.013 359.028 97.4928 359.028 97.4928C377.839 115.892 373.212 137.278 363.893 152.733C360.314 158.67 357.966 164.246 356.864 169.916C359.837 165.338 364.522 161.52 371.143 159.193C383.675 154.792 386.581 151 390.677 135.371C394.778 119.743 403.49 119.729 403.49 119.729C393.841 127.281 395.921 140.145 393.787 149.872C391.651 159.6 380.197 162.654 368.745 170.668C357.296 178.679 359.576 195.609 359.576 195.609H359.571C360.054 196.994 360.591 198.404 361.175 199.855C366.268 212.429 364.599 222.588 362.959 227.892C387.294 218.033 410.622 217.51 417.85 203.29C423.944 191.297 406.788 170.283 417.075 153.303C412.812 165.658 422.844 178.994 426.461 191.698C437.127 179.179 464.748 162.806 446.194 140.712C460.82 151.312 458.489 165.863 453.505 173.905C447.197 184.087 432.824 190.808 426.418 206.48C414.478 236.296 345.282 218.969 334.201 295.037C356.59 268.217 376.746 270.268 399.481 266.314C399.605 266.29 399.739 266.264 399.873 266.243C405.412 265.352 422.243 242.094 422.243 242.094C422.243 242.094 416.531 258.342 414.049 264.169C438.547 261.084 459.309 260.415 465.215 250.982C467.121 247.944 468.39 244.923 469.292 241.979L469.326 241.868C470.04 239.527 470.525 237.233 470.906 235.015C471.164 231.536 470.585 227.409 467.466 224.254C460.866 217.576 452.521 209.565 455.63 199.833C457.059 212.02 468.033 215.265 473.968 220.377C474.982 217.944 476.464 215.78 478.8 213.971C488.897 206.149 499.96 202.713 494.138 187.071C494.138 187.071 504.23 200.425 492.97 212.828C481.715 225.228 479.761 228.653 480.542 239.151C481.09 246.429 478.545 257.93 467.544 265.566C482.646 268.792 489.601 263.225 497.634 250.41C506.655 236.008 512.484 244.022 519.274 236.198C516.364 244.209 511.992 241.16 506.071 245.451C500.152 249.744 498.796 262.812 487.148 271.017C475.503 279.22 450.343 272.293 450.343 272.293L450.35 272.288C449.443 272.452 448.512 272.603 447.555 272.731C439.045 273.889 427.149 275.005 414.188 277.704C415.874 278.684 417.515 279.873 419.02 281.321C427.947 289.904 436.773 293.537 447.744 290.285C458.72 287.032 464.99 288.548 466.559 293.041C466.559 293.041 461.14 287.422 447.94 293.721C434.741 300.016 420.915 294.471 410.671 287.806C389.21 273.838 335.36 296.964 340.539 329.85C343.126 346.278 375.515 345.653 389.358 343.857C405.577 341.755 400.495 352.939 418.772 349.873C422.544 349.24 428.111 349.359 434.721 349.869H434.725C446.524 349.056 459.355 342.925 459.355 342.925C459.355 342.925 451.826 348.874 446.46 351.01Z" fill="#311C1E"/>
</g>
<mask id="mask1_199_127" style="mask-type:luminance" maskUnits="userSpaceOnUse" x="43" y="43" width="514" height="292">
<path d="M43.3127 43.226H556.878V334.979H43.3127V43.226Z" fill="white"/>
</mask>
<g mask="url(#mask1_199_127)">
<path fill-rule="evenodd" clip-rule="evenodd" d="M99.3257 330.632C99.3257 330.632 102.646 327.464 105.238 322.619C107.83 317.775 109.694 311.254 106.78 304.549C106.78 304.549 91.6963 310.733 99.3257 330.632ZM121.967 294.664C121.967 294.664 125.16 297.848 126.382 302.807C127.606 307.761 126.862 314.495 118.989 321.602C118.989 321.602 108.036 309.48 121.967 294.664ZM197.44 301.557C197.117 301.463 193.57 301.701 190.85 304.237C188.133 306.769 186.24 311.598 189.229 320.684C189.229 320.684 203.987 317.643 197.44 301.557ZM434.327 303.282C434.528 303.098 437.2 302.016 440.115 302.896C443.026 303.778 446.183 306.627 447.338 314.312C447.338 314.312 435.465 317.333 434.327 303.282ZM452.353 300.347C452.353 300.347 455.878 299.466 459.86 300.643C463.839 301.815 468.27 305.044 470.081 313.267C470.081 313.267 457.129 315.796 452.353 300.347ZM95.0838 295.704C94.9228 295.482 92.5093 293.918 89.4789 294.238C86.447 294.559 82.7997 296.765 80.1726 304.09C80.1726 304.09 91.2436 309.278 95.0838 295.704ZM459.839 288.644C459.839 288.644 465.602 286.974 472.069 287.88C478.541 288.784 485.71 292.265 488.523 302.566C488.523 302.566 464.263 306.573 459.839 288.644ZM152.591 279.171C152.591 279.171 148.464 279.071 144.03 281.724C139.597 284.375 134.858 289.78 133.635 300.79C133.635 300.79 155.648 298.769 152.591 279.171ZM187.608 292.679C187.511 292.425 185.6 290.293 182.588 289.823C179.579 289.351 175.471 290.542 170.982 296.933C170.982 296.933 180.285 304.79 187.608 292.679ZM500.363 269.369C506.964 268.415 514.628 268.224 521.279 271.992C527.926 275.76 533.555 283.486 536.078 298.368C536.078 298.368 499.199 298.749 500.363 269.369ZM90.8084 264.311C90.8084 264.311 84.7812 264.166 78.306 268.037C71.8323 271.911 64.9124 279.803 63.127 295.88C63.127 295.88 95.2703 292.93 90.8084 264.311ZM91.8908 256.996C91.8908 256.996 88.2228 250.86 80.721 247.728C73.2192 244.598 61.8852 244.471 46.55 256.49C46.55 256.49 68.6776 276.329 91.8908 256.996ZM507.155 252.479C512.576 244.909 520.966 245.967 529.289 248.151C537.612 250.335 545.869 253.645 551.023 250.574C549.472 258.777 522.685 274.612 507.155 252.479ZM422.926 256.786C422.926 256.786 424.286 253.35 427.122 250.149C429.961 246.949 434.278 243.982 440.198 244.92C440.198 244.92 438.843 260.329 422.926 256.786ZM402.919 233.848C402.919 233.848 405.084 237.119 406.309 241.657C407.54 246.193 407.835 251.995 404.1 257.054C404.1 257.054 392.682 249.058 402.919 233.848ZM100.296 253.438C100.296 253.438 95.9781 252.817 92.1204 249.716C88.2611 246.617 84.8641 241.036 86.7084 231.115C86.7084 231.115 102.236 234.169 100.296 253.438ZM204.556 245.853C204.556 245.853 202.154 244.001 198.319 243.661C194.483 243.319 189.215 244.493 183.486 250.544C183.486 250.544 196.133 259.174 204.556 245.853ZM418.657 248.391C418.289 248.118 416.422 242.822 417.506 236.596C418.59 230.368 422.631 223.209 434.082 219.204C434.082 219.204 443.597 238.279 418.657 248.391ZM533.025 241.616C533.025 241.616 537.033 243.311 541.882 243.31C546.736 243.308 552.432 241.61 555.818 234.824C555.818 234.824 542.754 227.402 533.025 241.616ZM516.546 240.676C516.546 240.676 522.935 240.767 529.464 236.754C535.998 232.741 542.675 224.627 543.258 208.219C543.258 208.219 517.247 208.985 516.546 240.676ZM48.6351 228.348C48.6351 228.348 54.3005 226.037 60.8634 226.228C67.4279 226.419 74.8882 229.116 78.4813 239.133C78.4813 239.133 58.2953 245.238 48.6351 228.348ZM227.349 239.512C227.349 239.512 231.025 238.898 233.738 235.626C236.453 232.354 238.206 226.429 234.361 215.804C234.361 215.804 217.371 224.627 227.349 239.512ZM117.525 232.798C117.525 232.798 115.337 231.584 112.107 231.35C108.877 231.117 104.607 231.864 100.443 235.787C100.443 235.787 112.95 243.784 117.525 232.798ZM505.408 238.363C505.408 238.363 509.007 236.906 511.638 233.017C514.265 229.128 515.924 222.806 512.042 213.076C512.042 213.076 495.7 220.617 505.408 238.363ZM188.828 230.076C188.828 230.076 191.813 226.952 193.466 222.469C195.118 217.985 195.435 212.142 190.098 206.704C190.098 206.704 178.549 216.241 188.828 230.076ZM94.494 221.764C94.494 221.764 92.8489 218.361 88.7744 216.135C84.7015 213.908 78.1976 212.858 68.4832 217.565C68.4832 217.565 75.859 233.975 94.494 221.764ZM108.272 216.993C108.272 216.993 106.902 212.99 107.261 207.914C107.62 202.834 109.706 196.683 116.618 192.382C116.618 192.382 122.832 209.361 108.272 216.993ZM98.7964 214.568C105.444 201.993 101.878 195.144 96.5248 189.229C91.1719 183.314 84.0319 178.332 83.5266 169.486C83.5266 169.486 73.4472 208.227 98.7964 214.568ZM454.08 213.003C454.08 213.003 454.097 210.113 452.525 207.238C450.957 204.363 447.801 201.501 441.462 201.555C441.462 201.555 439.522 215.292 454.08 213.003ZM210.459 209.418C210.459 209.418 210.753 205.59 208.741 202.024C206.731 198.458 202.414 195.155 193.194 196.205C193.194 196.205 193.583 216.62 210.459 209.418ZM62.6456 192.35C62.6456 192.35 67.235 191.883 72.14 193.778C77.045 195.67 82.2641 199.926 83.5266 209.371C83.5266 209.371 65.2806 212.614 62.6456 192.35ZM462.425 207.755C462.425 207.755 462.182 205.203 463.155 202.102C464.121 199.001 466.306 195.354 471.16 193.162C471.16 193.162 474.65 203.276 462.425 207.755ZM456.115 204.797C456.448 204.67 459.581 201.689 461.703 197.237C463.829 192.786 464.947 186.865 461.261 180.856C461.261 180.856 446.508 190.393 456.115 204.797ZM502.11 201.546C502.11 201.546 500.747 194.398 503.16 186.392C505.57 178.384 511.759 169.517 526.85 166.073C526.85 166.073 534.718 192.769 502.11 201.546ZM415.075 194.202C415.075 194.202 413.349 189.248 408.89 185.356C404.433 181.466 397.241 178.636 386.294 182.883C386.294 182.883 394.591 202.621 415.075 194.202ZM255.622 194.552C255.622 194.552 256.471 192.764 258.595 190.915C260.716 189.068 264.113 187.161 269.21 186.923C269.21 186.923 266.299 196.366 255.622 194.552ZM148.032 192.889C148.032 192.889 150.997 191.33 153.581 187.911C156.165 184.494 158.369 179.217 156.85 171.781C156.85 171.781 138.692 179.93 148.032 192.889ZM496.905 192.374C496.905 192.374 499.078 186.844 498.073 180.265C497.068 173.686 492.889 166.057 480.177 161.86C480.177 161.86 473.191 187.806 496.905 192.374ZM256.835 186.539C256.978 186.634 261.772 187.04 266.479 183.965C271.186 180.887 275.809 174.33 275.615 160.501C275.615 160.501 255.04 162.977 256.835 186.539ZM250.575 186.063C250.575 186.063 252.025 183.061 252.751 179.103C253.476 175.145 253.476 170.231 250.575 166.41C250.575 166.41 239.51 177.288 250.575 186.063ZM301.332 183.918C301.332 183.918 302.494 180.436 300.822 176.549C299.147 172.662 294.634 168.368 283.281 166.745C283.281 166.745 283.281 185.632 301.332 183.918ZM128.655 178.838C128.655 178.838 127.114 176.246 123.674 174.545C120.234 172.843 114.895 172.033 107.304 175.595C107.304 175.595 115.842 188.184 128.655 178.838ZM412.173 178.988C412.173 178.988 412.503 175.057 410.614 171.052C408.725 167.046 404.621 162.966 395.765 162.664C395.765 162.664 395.451 178.745 412.173 178.988ZM313.47 178.424C313.47 178.424 312.932 175.001 314.434 171.311C315.934 167.621 319.479 163.666 327.647 162.604C327.647 162.604 326.21 178.189 313.47 178.424ZM139.441 175.515C139.441 175.515 139.199 172.748 140.436 169.791C141.673 166.834 144.391 163.688 150.309 162.925C150.309 162.925 154 174.372 139.441 175.515ZM163.423 161.111C163.423 161.111 167.354 160.492 171.356 161.805C175.361 163.116 179.437 166.361 179.727 174.086C179.727 174.086 164.004 175.996 163.423 161.111ZM507.251 139.045C507.251 139.045 502.765 142.079 499.779 147.924C496.797 153.772 495.317 162.433 501.333 173.688C501.333 173.688 519.194 159.002 507.251 139.045ZM423.022 168.932C423.022 168.932 422.781 165.498 424.065 161.445C425.354 157.39 428.168 152.716 434.281 150.237C434.281 150.237 436.025 164.544 423.022 168.932ZM414.588 167.944C414.588 167.944 419.104 162.892 422.097 155.959C425.096 149.027 426.575 140.214 420.503 132.69C420.503 132.69 395.505 149.093 414.588 167.944ZM130.903 164.84C130.903 164.84 131.373 149.455 115.067 149.455C98.7597 149.455 97.7921 145.638 97.7921 145.638C97.7921 145.638 101.674 175.402 130.903 164.84ZM303.145 166.664C303.145 166.664 306.06 152.691 295.774 149.258C285.487 145.823 285.876 144.109 285.876 144.109C285.876 144.109 279.275 164.711 303.145 166.664ZM307.036 166.056C304.404 156.511 306.669 151.282 310.135 146.834C313.596 142.384 318.261 138.716 320.429 132.289C320.429 132.289 331.885 164.149 307.036 166.056ZM459.71 164.544C460.193 164.257 461.07 161.109 463.663 158.176C466.26 155.243 470.58 152.525 477.958 153.097C477.958 153.097 472.711 168.741 459.71 164.544ZM136.03 163.002C136.03 163.002 130.012 149.645 139.911 142.014C149.812 134.381 150.396 132.096 150.396 132.096C150.396 132.096 156.217 155.372 136.03 163.002ZM215.054 136.507C215.054 136.507 209.699 137.594 204.692 141.405C199.685 145.215 195.025 151.749 196.415 162.643C196.415 162.643 216.217 160.542 215.054 136.507ZM177.875 155.295C177.875 155.295 177.875 150.764 175.327 146.137C172.78 141.51 167.684 136.787 157.494 136.405C157.494 136.405 159.629 157.963 177.875 155.295ZM455.215 151.135C455.215 151.135 458.033 144.564 457.8 136.708C457.563 128.848 454.268 119.703 442.038 114.551C442.038 114.551 426.508 145.081 455.215 151.135ZM129.236 149.458C129.236 149.458 133.428 144.758 135.049 137.411C136.67 130.063 135.72 120.068 125.435 109.481C125.435 109.481 110.991 133.051 129.236 149.458ZM301.836 148.515C301.836 148.515 304.551 146.431 305.697 142.572C306.845 138.713 306.427 133.079 300.168 125.973C300.168 125.973 290.438 143.869 301.836 148.515ZM463.775 148.13C463.775 148.13 462.479 141.458 465.292 134.81C468.108 128.162 475.031 121.536 491.464 121.627C491.464 121.627 492.115 147.749 463.775 148.13ZM351.933 144.407C351.933 144.407 350.808 141.939 350.875 138.456C350.942 134.973 352.201 130.475 356.976 126.41C356.976 126.41 364.576 140.62 351.933 144.407ZM330.55 115.283C330.55 115.283 328.473 120.925 329.237 127.316C329.996 133.705 333.59 140.842 344.937 143.835C344.937 143.835 353.843 126.161 330.55 115.283ZM190.685 141.75C190.685 141.75 190.951 137.377 193.025 132.518C195.099 127.661 198.98 122.318 206.214 120.38C206.214 120.38 209.707 136.979 190.685 141.75ZM104.647 129.972C104.647 129.972 107.62 129.696 110.786 130.995C113.951 132.292 117.31 135.164 118.087 141.461C118.087 141.461 105.858 144.133 104.647 129.972ZM237.954 132.497C237.927 132.499 222.415 140.573 216.605 122.959C216.605 122.959 220.081 121.462 224.487 121.906C228.895 122.349 234.232 124.735 237.954 132.497ZM177.568 133.428C177.568 133.428 178.831 128.515 177.91 122.551C176.987 116.589 173.881 109.576 165.146 105.38C165.146 105.38 155.248 125.411 177.568 133.428ZM144.486 128.869C144.486 128.869 147.592 125.339 149.605 119.805C151.618 114.272 152.541 106.736 148.175 98.723C148.175 98.723 133.227 111.699 144.486 128.869ZM184.745 126.746C179.406 117.873 180.388 109.145 184.06 101.108C187.729 93.0714 194.086 85.7277 199.5 79.6233C199.5 79.6233 217.359 111.294 184.745 126.746ZM397.582 124.668C398.153 124.975 404.025 126.548 410.63 125.135C417.235 123.722 424.565 119.322 428.059 107.684C428.059 107.684 405.154 98.9094 397.582 124.668ZM463.388 124.474C463.388 124.474 466.486 121.693 468.396 117.15C470.306 112.608 471.031 106.305 466.286 99.2604C466.286 99.2604 452.133 109.594 463.388 124.474ZM363.138 122.073C363.138 122.073 362.658 118.656 360.049 115.269C357.443 111.881 352.705 108.523 344.194 108.643C344.194 108.643 343.234 122.78 363.138 122.073ZM394.287 120.276C394.287 120.276 396.276 116.795 397.515 112.263C398.754 107.732 399.238 102.151 396.227 97.9552C396.227 97.9552 384.777 108.259 394.287 120.276ZM236.964 117.597C236.964 117.597 235.015 113.956 231.273 110.824C227.534 107.691 222.002 105.067 214.84 107.102C214.84 107.102 218.913 122.26 236.964 117.597ZM271.146 106.358C271.146 106.358 275.61 105.786 279.831 106.693C284.054 107.599 288.033 109.985 287.065 115.9C287.065 115.9 274.252 118.57 271.146 106.358ZM249.794 115.327C249.794 115.327 249.746 112.702 251.08 109.888C252.414 107.074 255.132 104.071 260.664 103.309C260.664 103.309 262.215 115.135 249.794 115.327ZM373.997 115.302C373.997 115.302 372.542 111.248 373.076 106.311C373.608 101.374 376.132 95.5548 384.088 92.0263C384.088 92.0263 390.885 106.715 373.997 115.302ZM453.997 111.275C453.997 111.275 455.019 106.125 453.417 100.307C451.816 94.4894 447.592 88.0027 437.109 85.3313C437.109 85.3313 433.811 106.889 453.997 111.275ZM339.841 72.9753C339.841 72.9753 347.835 72.5413 355.37 76.9456C362.904 81.35 369.977 90.5911 368.137 109.945C368.137 109.945 338.731 107.516 339.841 72.9753ZM177.181 106.335C177.181 106.335 180.033 101.327 181.303 94.8325C182.576 88.3396 182.268 80.3613 175.954 74.4183C175.954 74.4183 162.622 88.7861 177.181 106.335ZM237.605 105.167C237.605 105.167 239.891 99.7226 238.649 93.6182C237.406 87.5139 232.636 80.7468 218.524 78.1019C218.524 78.1019 214.84 103.472 237.605 105.167ZM245.311 104.241C245.311 104.241 239.875 87.8351 251.133 77.9124C262.393 67.9928 265.106 62.2707 265.106 62.2707C265.106 62.2707 275.98 91.268 245.311 104.241ZM291.525 101.969C291.525 101.969 292.399 97.5337 290.094 93.1936C287.789 88.8551 282.307 84.6105 269.592 84.9929C269.592 84.9929 272.892 105.597 291.525 101.969ZM327.627 69.2556C327.627 69.2556 323.967 73.262 321.577 79.299C319.191 85.336 318.078 93.4051 323.17 101.529C323.17 101.529 342.284 92.8411 327.627 69.2556ZM408.653 101.197C408.653 101.197 414.178 99.5189 418.857 95.0644C423.535 90.6084 427.367 83.3775 423.974 72.2734C423.974 72.2734 398.945 77.5426 408.653 101.197ZM304.634 95.2556C304.634 95.2556 304.551 92.9053 305.794 89.8077C307.041 86.7101 309.609 82.8682 314.917 79.8866C314.917 79.8866 317.807 94.0679 304.634 95.2556ZM372.217 91.8493C372.217 91.8493 367.745 86.0223 365.574 78.1772C363.401 70.3321 363.522 60.4673 372.704 52.3919C372.704 52.3919 390.314 73.8778 372.217 91.8493ZM395.572 63.3926C395.572 63.3926 391.91 65.8588 389.329 70.5733C386.748 75.2864 385.244 82.2509 389.554 91.2445C389.554 91.2445 406.051 83.8068 395.572 63.3926ZM294.254 85.9376C294.254 85.9376 272.13 80.6371 274.068 63.988C276.005 47.3389 273.265 46.7309 273.265 46.7309C273.265 46.7309 307.433 51.3358 294.254 85.9376ZM240.459 83.448C240.459 83.448 245.155 79.5481 248.093 73.3012C251.031 67.0527 252.21 58.4571 245.175 49.0608C245.175 49.0608 227.647 61.6973 240.459 83.448ZM300.432 82.2979C300.432 82.2979 300.334 77.9578 302.52 73.0207C304.7 68.0837 309.167 62.5496 318.29 60.1633C318.29 60.1633 321.588 75.8081 300.432 82.2979ZM231.251 74.3055C231.251 74.3055 231.308 70.0485 229.236 65.8368C227.162 61.6236 222.957 57.4574 214.433 57.6361C214.433 57.6361 213.01 74.5938 231.251 74.3055ZM358.573 70.097C358.573 70.097 360.111 66.0985 358.715 61.0737C357.321 56.0473 352.993 49.9946 341.267 45.8849C341.267 45.8849 337.222 65.7146 358.573 70.097ZM309.884 43.226C309.884 43.226 307.002 44.1707 304.308 47.3577C301.614 50.543 299.113 55.9721 299.867 64.939C299.867 64.939 313.428 62.3115 309.884 43.226Z" fill="#679436"/>
</g>
<mask id="mask2_199_127" style="mask-type:luminance" maskUnits="userSpaceOnUse" x="104" y="365" width="394" height="67">
<path d="M497.922 365.864H104.934V431.244H497.922V365.864Z" fill="white"/>
</mask>
<g mask="url(#mask2_199_127)">
<path d="M106.46 419.291V416.953C106.46 416.527 106.553 416.035 106.741 415.474C106.986 414.935 107.316 414.464 107.729 414.058L120.424 401.498C120.649 401.257 120.974 400.921 121.4 400.495C121.824 400.069 122.192 399.698 122.503 399.38C122.817 399.063 123.098 398.756 123.345 398.458C124.233 397.402 124.933 396.437 125.443 395.563C126.101 394.432 126.543 393.467 126.769 392.667C127.037 391.757 127.171 390.728 127.171 389.578C127.171 388.537 127.037 387.665 126.769 386.958C126.504 386.273 126.08 385.642 125.494 385.065C124.928 384.511 124.285 384.13 123.568 383.925C122.678 383.666 121.848 383.536 121.075 383.536C119.356 383.536 117.941 383.973 116.828 384.846C115.731 385.698 114.955 386.839 114.501 388.268C114.274 388.992 113.954 389.501 113.538 389.797C113.125 390.153 112.578 390.33 111.899 390.33C111.746 390.33 111.442 390.292 110.987 390.217L107.193 389.578C107.477 387.627 108.045 385.883 108.896 384.344C109.746 382.82 110.766 381.574 111.957 380.609C113.108 379.644 114.542 378.892 116.261 378.353C117.868 377.852 119.603 377.601 121.47 377.601C123.378 377.601 125.164 377.889 126.826 378.466C128.301 378.967 129.653 379.766 130.882 380.86C131.956 381.825 132.842 383.06 133.541 384.564C134.204 386.015 134.535 387.61 134.535 389.352C134.535 390.803 134.299 392.204 133.828 393.557C133.372 394.878 132.777 396.113 132.042 397.261C131.208 398.582 130.321 399.724 129.377 400.69C128.679 401.413 127.593 402.535 126.119 404.055L116.656 413.581C117.204 413.415 118.119 413.21 119.404 412.967C120.726 412.801 121.575 412.717 121.955 412.717H131.22C131.334 411.234 131.419 410.382 131.475 410.159C131.644 409.47 132.088 409.125 132.807 409.125H135.868V419.291H106.46Z" fill="#311C1E"/>
<path d="M140.694 388.713L153.44 377.989H159.364V414.001C162.897 414.261 165.022 414.446 165.74 414.559C166.514 414.727 166.901 415.198 166.901 415.975V419.291H143.697V415.975C143.697 415.198 144.083 414.727 144.858 414.559C145.822 414.431 148.258 414.214 152.165 413.913V389.966C152.165 389.374 152.203 388.39 152.28 387.014L146.248 391.972C146.001 392.214 145.754 392.363 145.508 392.417C145.205 392.492 144.931 392.529 144.686 392.529C144.235 392.529 143.885 392.454 143.64 392.304C143.375 392.175 143.149 391.99 142.958 391.752L140.694 388.713Z" fill="#311C1E"/>
<path d="M171.615 388.713L184.361 377.989H190.285V414.001C193.817 414.261 195.942 414.446 196.661 414.559C197.434 414.727 197.822 415.198 197.822 415.975V419.291H174.618V415.975C174.618 415.198 175.004 414.727 175.779 414.559C176.743 414.431 179.179 414.214 183.086 413.913V389.966C183.086 389.374 183.124 388.39 183.201 387.014L177.169 391.972C176.922 392.214 176.675 392.363 176.429 392.417C176.126 392.492 175.852 392.529 175.607 392.529C175.155 392.529 174.806 392.454 174.561 392.304C174.296 392.175 174.07 391.99 173.879 391.752L171.615 388.713Z" fill="#311C1E"/>
<path d="M218.838 381.418V378.046H234.504V381.418C234.504 382.383 234.013 382.977 233.031 383.198C232.917 383.198 232.821 383.216 232.745 383.254C232.65 383.314 232.445 383.37 232.126 383.423C231.616 383.536 231.284 383.61 231.131 383.643L237.112 404.475C237.337 405.332 237.508 405.992 237.622 406.456C237.661 406.64 237.731 406.993 237.833 407.515C237.935 408.033 238.005 408.441 238.043 408.737C238.235 407.789 238.404 407.029 238.553 406.456C238.684 405.917 238.885 405.257 239.153 404.475L247.366 379.832C247.557 379.368 247.869 378.97 248.303 378.635C248.829 378.243 249.368 378.046 249.916 378.046H252.237C252.938 378.046 253.506 378.206 253.94 378.522C254.373 378.836 254.686 379.273 254.877 379.832L263.032 404.475C263.563 406.054 263.933 407.4 264.142 408.511C264.234 407.864 264.374 407.161 264.563 406.399C264.66 405.769 264.811 405.127 265.015 404.475L270.996 383.699C270.201 383.553 269.409 383.386 268.618 383.198C267.652 382.977 267.171 382.383 267.171 381.418V378.046H282.837V381.418C282.837 382.383 282.346 382.977 281.364 383.198C281.347 383.198 281.315 383.204 281.269 383.216C281.221 383.226 281.149 383.24 281.052 383.26C280.958 383.278 280.854 383.295 280.739 383.31C280.607 383.332 280.366 383.376 280.019 383.442C279.67 383.505 279.372 383.555 279.126 383.592L267.795 419.291H260.769L251.619 391.107C251.58 390.999 251.466 390.618 251.274 389.966C251.257 389.875 251.191 389.665 251.077 389.34C250.965 389.014 250.892 388.768 250.853 388.6C250.831 388.675 250.778 388.887 250.694 389.233C250.608 389.576 250.547 389.821 250.509 389.966C250.415 390.339 250.302 390.718 250.171 391.107L240.881 419.291H233.854L222.606 383.592C222.377 383.555 222.067 383.505 221.682 383.442C221.294 383.376 221.034 383.332 220.904 383.31C220.789 383.295 220.684 383.278 220.591 383.26C220.497 383.24 220.427 383.226 220.381 383.216C220.333 383.204 220.299 383.198 220.279 383.198C219.317 382.977 218.838 382.383 218.838 381.418Z" fill="#311C1E"/>
<path d="M287.748 419.291V415.919C287.748 414.976 288.229 414.39 289.195 414.164L289.31 414.139C289.382 414.124 289.457 414.114 289.533 414.114C289.587 414.114 289.715 414.088 289.916 414.033C290.115 413.975 290.281 413.936 290.413 413.914C290.528 413.898 290.675 413.876 290.853 413.851C291.032 413.823 291.252 413.788 291.516 413.751C291.779 413.713 291.996 413.676 292.167 413.638V383.699C291.996 383.661 291.779 383.627 291.516 383.592C291.252 383.555 291.032 383.522 290.853 383.492C290.675 383.464 290.528 383.44 290.413 383.423C290.281 383.408 290.115 383.376 289.916 383.329C289.715 383.279 289.587 383.254 289.533 383.254C289.457 383.254 289.382 383.246 289.31 383.229L289.195 383.198C288.229 382.977 287.748 382.383 287.748 381.418V378.046H318.603V388.882H315.262C314.543 388.882 314.098 388.53 313.929 387.823C313.703 386.04 313.561 384.813 313.502 384.144H299.99V395.563H314.21V401.498H299.99V413.137H313.502C313.561 412.522 313.703 411.306 313.929 409.489C314.098 408.767 314.543 408.405 315.262 408.405H318.603V419.291H287.748Z" fill="#311C1E"/>
<path d="M323.772 419.291V416.396C323.772 415.728 324.158 415.227 324.933 414.891C325.591 414.633 326.648 414.196 328.102 413.582L342.27 378.046H350.292L364.511 413.582C365.965 414.196 367.023 414.633 367.687 414.891C368.421 415.151 368.79 415.653 368.79 416.396V419.291H354.621V416.396C354.621 415.728 355.01 415.227 355.788 414.891C355.804 414.876 355.865 414.852 355.967 414.822C356.072 414.794 356.215 414.744 356.394 414.672C356.572 414.597 356.757 414.522 356.949 414.446L356.719 413.807L354.621 408.236H337.934L335.786 414.114L335.613 414.446C335.8 414.522 335.983 414.597 336.162 414.672C336.343 414.744 336.487 414.797 336.589 414.835C336.694 414.873 336.756 414.891 336.774 414.891C337.547 415.227 337.934 415.728 337.934 416.396V419.291H323.772ZM339.949 402.808H352.67L347.85 389.966C347.776 389.783 347.655 389.463 347.486 389.007C347.316 388.553 347.182 388.177 347.084 387.879C347.011 387.658 346.74 386.739 346.268 385.122C345.792 386.773 345.525 387.691 345.471 387.879C345.395 388.139 345.313 388.393 345.229 388.644C345.143 388.895 345.047 389.15 344.942 389.409C344.84 389.669 344.76 389.872 344.706 390.023L339.949 402.808Z" fill="#311C1E"/>
<path d="M373.926 419.291V415.919C373.926 414.976 374.407 414.39 375.373 414.164C375.483 414.164 375.597 414.149 375.711 414.114C375.957 414.039 376.25 413.973 376.591 413.914C376.706 413.898 376.853 413.876 377.031 413.851C377.21 413.823 377.43 413.788 377.694 413.751C377.957 413.713 378.174 413.676 378.345 413.638V383.699C378.174 383.661 377.957 383.627 377.694 383.592C377.43 383.555 377.21 383.522 377.031 383.492C376.853 383.464 376.706 383.44 376.591 383.423C376.459 383.408 376.293 383.376 376.094 383.329C375.893 383.279 375.766 383.254 375.711 383.254C375.597 383.216 375.483 383.198 375.373 383.198C374.407 382.977 373.926 382.383 373.926 381.418V378.046H390.53V381.418C390.53 382.383 390.039 382.977 389.057 383.198C388.942 383.198 388.829 383.216 388.719 383.254C388.566 383.314 388.273 383.37 387.839 383.423C387.686 383.44 387.406 383.483 386.998 383.549C386.593 383.611 386.298 383.661 386.111 383.699V412.967H399.623C399.738 411.448 399.814 410.63 399.852 410.517C400.021 409.795 400.474 409.433 401.211 409.433H404.329V419.291H373.926Z" fill="#311C1E"/>
<path d="M409.383 387.823V378.046H444.255V387.823H440.946C440.189 387.823 439.725 387.463 439.556 386.739C439.403 385.904 439.298 385.122 439.244 384.395H430.712V413.638C430.942 413.676 431.249 413.729 431.637 413.795C432.022 413.857 432.282 413.9 432.414 413.92C432.545 413.937 432.709 413.975 432.905 414.033C433.105 414.088 433.232 414.114 433.288 414.114C433.347 414.114 433.416 414.124 433.492 414.139C433.569 414.157 433.615 414.164 433.632 414.164C434.635 414.39 435.137 414.976 435.137 415.919V419.291H418.533V415.919C418.533 414.976 419.024 414.39 420.006 414.164L420.121 414.139C420.193 414.124 420.268 414.114 420.344 414.114C420.403 414.114 420.531 414.088 420.727 414.033C420.926 413.975 421.092 413.937 421.224 413.92C421.355 413.9 421.61 413.857 421.989 413.795C422.367 413.729 422.668 413.676 422.895 413.638V384.345H414.369C414.271 385.382 414.175 386.179 414.082 386.739C413.912 387.463 413.467 387.823 412.75 387.823H409.383Z" fill="#311C1E"/>
<path d="M449.225 419.291V415.919C449.225 414.976 449.706 414.39 450.672 414.164L450.787 414.139C450.859 414.124 450.934 414.114 451.01 414.114C451.064 414.114 451.192 414.088 451.393 414.033C451.592 413.975 451.758 413.936 451.89 413.914C452.005 413.898 452.152 413.876 452.33 413.851C452.509 413.823 452.729 413.788 452.993 413.751C453.256 413.713 453.473 413.676 453.644 413.638V383.699C453.473 383.661 453.256 383.627 452.993 383.592C452.729 383.555 452.509 383.522 452.33 383.492C452.152 383.464 452.005 383.44 451.89 383.423C451.758 383.408 451.592 383.376 451.393 383.329C451.192 383.279 451.064 383.254 451.01 383.254C450.895 383.216 450.782 383.198 450.672 383.198C449.706 382.977 449.225 382.383 449.225 381.418V378.046H465.886V381.418C465.886 382.383 465.403 382.977 464.439 383.198C464.307 383.198 464.184 383.216 464.069 383.254C464.013 383.254 463.89 383.279 463.699 383.329C463.511 383.376 463.352 383.408 463.221 383.423C463.109 383.44 462.963 383.464 462.781 383.492C462.602 383.522 462.381 383.555 462.118 383.592C461.853 383.627 461.636 383.661 461.467 383.699V395.789H481.126V383.699C480.899 383.661 480.598 383.611 480.22 383.549C479.841 383.483 479.586 383.44 479.455 383.423C479.022 383.37 478.728 383.314 478.575 383.254C478.519 383.254 478.454 383.246 478.378 383.229C478.304 383.209 478.258 383.198 478.237 383.198C477.276 382.977 476.796 382.383 476.796 381.418V378.046H493.368V381.418C493.368 382.383 492.885 382.977 491.921 383.198L491.813 383.229C491.736 383.246 491.66 383.254 491.583 383.254C491.527 383.254 491.4 383.279 491.2 383.329C491 383.376 490.834 383.408 490.703 383.423C490.571 383.44 490.316 383.483 489.938 383.549C489.559 383.611 489.257 383.661 489.033 383.699V413.638C489.257 413.676 489.559 413.729 489.938 413.795C490.316 413.857 490.571 413.9 490.703 413.92C490.834 413.937 491 413.975 491.2 414.033C491.4 414.088 491.527 414.114 491.583 414.114C491.66 414.114 491.736 414.124 491.813 414.139L491.921 414.164C492.885 414.39 493.368 414.976 493.368 415.919V419.291H476.796V415.919C476.796 414.976 477.276 414.39 478.237 414.164C478.352 414.164 478.464 414.149 478.575 414.114C478.821 414.039 479.114 413.973 479.455 413.914C479.586 413.898 479.841 413.857 480.22 413.795C480.598 413.729 480.899 413.676 481.126 413.638V401.273H461.467V413.638C461.636 413.676 461.853 413.713 462.118 413.751C462.381 413.788 462.602 413.823 462.781 413.851C462.963 413.876 463.109 413.898 463.221 413.914C463.352 413.936 463.511 413.975 463.699 414.033C463.89 414.088 464.013 414.114 464.069 414.114C464.184 414.149 464.307 414.164 464.439 414.164C465.403 414.39 465.886 414.976 465.886 415.919V419.291H449.225Z" fill="#311C1E"/>
</g>
</svg>
